<?xml version="1.0" encoding="UTF-8"?><svg id="a" xmlns="http://www.w3.org/2000/svg" xmlns:xlink="http://www.w3.org/1999/xlink" viewBox="0 0 500 281"><defs><style>.c{fill:url(#b);}.d{fill:#f2f2f3;}</style><linearGradient id="b" x1="445.25" y1="335.75" x2="54.75" y2="-54.75" gradientTransform="matrix(1, 0, 0, 1, 0, 0)" gradientUnits="userSpaceOnUse"><stop offset="0" stop-color="#e83c96"/><stop offset=".13" stop-color="#e8488c"/><stop offset=".35" stop-color="#eb6971"/><stop offset=".66" stop-color="#ee9e47"/><stop offset="1" stop-color="#f3e112"/></linearGradient></defs><rect class="c" width="500" height="281"/><path class="d" d="M310.72,154.82c-17.78,0-32.23,14.43-32.23,32.23s14.45,32.23,32.23,32.23,32.23-14.43,32.23-32.23-14.45-32.23-32.23-32.23Zm17.91,35.81h-35.81v-7.16h35.81v7.16Zm-60.87,14.32h-53.73v-57.3h71.62v.23c13.41-8.62,29.46-9.45,42.97-3.8V61.71H171.05V219.29h106.15c-3.96-4.13-7.21-8.96-9.44-14.32Zm32.22-128.92h14.32v14.32h-14.32v-14.32Zm0,28.65h14.32v14.32h-14.32v-14.32Zm-85.95-28.65h71.62v57.3h-71.62v-57.3Zm-14.32,128.92h-14.32v-14.32h14.32v14.32Zm0-28.65h-14.32v-14.32h14.32v14.32Zm0-28.65h-14.32v-14.32h14.32v14.32Zm0-28.65h-14.32v-14.32h14.32v14.32Zm0-28.65h-14.32v-14.32h14.32v14.32Z"/></svg>