<?xml version="1.0" encoding="UTF-8"?><svg id="a" xmlns="http://www.w3.org/2000/svg" xmlns:xlink="http://www.w3.org/1999/xlink" viewBox="0 0 500 750"><defs><style>.c{fill:url(#b);}.d{fill:#f2f2f3;}</style><linearGradient id="b" x1="562.5" y1="687.5" x2="-62.5" y2="62.5" gradientTransform="matrix(1, 0, 0, 1, 0, 0)" gradientUnits="userSpaceOnUse"><stop offset="0" stop-color="#e83c96"/><stop offset="1" stop-color="#f3e112"/></linearGradient></defs><rect class="c" width="500" height="750"/><g><path class="d" d="M143.44,469.3v-38.64h8.16l11.34,23.22,11.34-23.22h8.1v38.64h-8.1v-25.14l-9,18.48h-4.68l-9.06-18.48v25.14h-8.1Z"/><path class="d" d="M189.22,469.3v-38.64h8.1v38.64h-8.1Z"/><path class="d" d="M216.16,469.9c-2.48,0-4.79-.18-6.93-.54-2.14-.36-3.99-.88-5.55-1.56v-7.14c1.76,.72,3.66,1.3,5.7,1.74,2.04,.44,4.04,.66,6,.66,2.8,0,4.86-.26,6.18-.78,1.32-.52,1.98-1.7,1.98-3.54,0-1.16-.28-2.08-.84-2.76-.56-.68-1.53-1.29-2.91-1.83s-3.33-1.15-5.85-1.83c-4.04-1.12-6.88-2.52-8.52-4.2-1.64-1.68-2.46-4-2.46-6.96,0-3.56,1.3-6.3,3.9-8.22,2.6-1.92,6.38-2.88,11.34-2.88,2.32,0,4.48,.16,6.48,.48s3.62,.7,4.86,1.14v7.14c-3.28-1.24-6.7-1.86-10.26-1.86-2.52,0-4.5,.27-5.94,.81-1.44,.54-2.16,1.67-2.16,3.39,0,1,.26,1.8,.78,2.4,.52,.6,1.41,1.14,2.67,1.62,1.26,.48,3.03,1.02,5.31,1.62,3.16,.84,5.6,1.84,7.32,3s2.91,2.48,3.57,3.96c.66,1.48,.99,3.14,.99,4.98,0,3.36-1.28,6.06-3.84,8.1-2.56,2.04-6.5,3.06-11.82,3.06Z"/><path class="d" d="M248.26,469.9c-2.48,0-4.79-.18-6.93-.54-2.14-.36-3.99-.88-5.55-1.56v-7.14c1.76,.72,3.66,1.3,5.7,1.74,2.04,.44,4.04,.66,6,.66,2.8,0,4.86-.26,6.18-.78,1.32-.52,1.98-1.7,1.98-3.54,0-1.16-.28-2.08-.84-2.76-.56-.68-1.53-1.29-2.91-1.83s-3.33-1.15-5.85-1.83c-4.04-1.12-6.88-2.52-8.52-4.2-1.64-1.68-2.46-4-2.46-6.96,0-3.56,1.3-6.3,3.9-8.22,2.6-1.92,6.38-2.88,11.34-2.88,2.32,0,4.48,.16,6.48,.48s3.62,.7,4.86,1.14v7.14c-3.28-1.24-6.7-1.86-10.26-1.86-2.52,0-4.5,.27-5.94,.81-1.44,.54-2.16,1.67-2.16,3.39,0,1,.26,1.8,.78,2.4,.52,.6,1.41,1.14,2.67,1.62,1.26,.48,3.03,1.02,5.31,1.62,3.16,.84,5.6,1.84,7.32,3s2.91,2.48,3.57,3.96c.66,1.48,.99,3.14,.99,4.98,0,3.36-1.28,6.06-3.84,8.1-2.56,2.04-6.5,3.06-11.82,3.06Z"/><path class="d" d="M269.56,469.3v-38.64h8.1v38.64h-8.1Z"/><path class="d" d="M284.5,469.3v-38.64h7.02l18.3,25.74v-25.74h8.1v38.64h-7.02l-18.3-25.74v25.74h-8.1Z"/><path class="d" d="M343.36,469.9c-6.48,0-11.4-1.7-14.76-5.1-3.36-3.4-5.04-8.12-5.04-14.16,0-6.4,1.7-11.43,5.1-15.09,3.4-3.66,8.46-5.49,15.18-5.49,2.32,0,4.42,.13,6.3,.39s3.66,.67,5.34,1.23v6.96c-1.68-.6-3.45-1.03-5.31-1.29-1.86-.26-3.77-.39-5.73-.39-4.6,0-7.86,1.13-9.78,3.39-1.92,2.26-2.88,5.69-2.88,10.29,0,8.28,3.9,12.42,11.7,12.42,1.36,0,2.69-.11,3.99-.33,1.3-.22,2.45-.51,3.45-.87v-9h-9v-5.16h15.84v18.9c-1.32,.84-3.16,1.6-5.52,2.28-2.36,.68-5.32,1.02-8.88,1.02Z"/><path class="d" d="M165.94,541.3v-38.64h8.16l11.34,23.22,11.34-23.22h8.1v38.64h-8.1v-25.14l-9,18.48h-4.68l-9.06-18.48v25.14h-8.1Z"/><path class="d" d="M229.3,541.9c-12.52,0-18.78-6.58-18.78-19.74,0-7.08,1.58-12.2,4.74-15.36s7.84-4.74,14.04-4.74,10.88,1.58,14.04,4.74c3.16,3.16,4.74,8.28,4.74,15.36,0,13.16-6.26,19.74-18.78,19.74Zm0-6.9c3.64,0,6.31-1.05,8.01-3.15,1.7-2.1,2.55-5.33,2.55-9.69,0-4.84-.85-8.25-2.55-10.23-1.7-1.98-4.37-2.97-8.01-2.97s-6.31,.99-8.01,2.97c-1.7,1.98-2.55,5.39-2.55,10.23,0,4.36,.85,7.59,2.55,9.69,1.7,2.1,4.37,3.15,8.01,3.15Z"/><path class="d" d="M264.88,541.3l-14.76-38.64h8.46l10.68,29.58,10.74-29.58h8.46l-14.7,38.64h-8.88Z"/><path class="d" d="M292.6,541.3v-38.64h8.1v38.64h-8.1Z"/><path class="d" d="M307.54,541.3v-38.64h27.72v6.3h-19.62v9.9h17.4v6.24h-17.4v9.96h19.62v6.24h-27.72Z"/><path class="d" d="M146.59,613.3v-38.64h18.12c3.04,0,5.53,.58,7.47,1.74,1.94,1.16,3.39,2.74,4.35,4.74,.96,2,1.44,4.28,1.44,6.84s-.55,4.9-1.65,6.9c-1.1,2-2.66,3.55-4.68,4.65-2.02,1.1-4.41,1.65-7.17,1.65h-9.78v12.12h-8.1Zm8.1-18.54h8.1c2.32,0,4.07-.61,5.25-1.83,1.18-1.22,1.77-2.87,1.77-4.95,0-2.24-.56-3.95-1.68-5.13-1.12-1.18-2.8-1.77-5.04-1.77h-8.4v13.68Z"/><path class="d" d="M200.05,613.9c-12.52,0-18.78-6.58-18.78-19.74,0-7.08,1.58-12.2,4.74-15.36s7.84-4.74,14.04-4.74,10.88,1.58,14.04,4.74c3.16,3.16,4.74,8.28,4.74,15.36,0,13.16-6.26,19.74-18.78,19.74Zm0-6.9c3.64,0,6.31-1.05,8.01-3.15,1.7-2.1,2.55-5.33,2.55-9.69,0-4.84-.85-8.25-2.55-10.23-1.7-1.98-4.37-2.97-8.01-2.97s-6.31,.99-8.01,2.97c-1.7,1.98-2.55,5.39-2.55,10.23,0,4.36,.85,7.59,2.55,9.69,1.7,2.1,4.37,3.15,8.01,3.15Z"/><path class="d" d="M236.47,613.9c-2.48,0-4.79-.18-6.93-.54-2.14-.36-3.99-.88-5.55-1.56v-7.14c1.76,.72,3.66,1.3,5.7,1.74,2.04,.44,4.04,.66,6,.66,2.8,0,4.86-.26,6.18-.78s1.98-1.7,1.98-3.54c0-1.16-.28-2.08-.84-2.76-.56-.68-1.53-1.29-2.91-1.83-1.38-.54-3.33-1.15-5.85-1.83-4.04-1.12-6.88-2.52-8.52-4.2-1.64-1.68-2.46-4-2.46-6.96,0-3.56,1.3-6.3,3.9-8.22,2.6-1.92,6.38-2.88,11.34-2.88,2.32,0,4.48,.16,6.48,.48,2,.32,3.62,.7,4.86,1.14v7.14c-3.28-1.24-6.7-1.86-10.26-1.86-2.52,0-4.5,.27-5.94,.81-1.44,.54-2.16,1.67-2.16,3.39,0,1,.26,1.8,.78,2.4,.52,.6,1.41,1.14,2.67,1.62,1.26,.48,3.03,1.02,5.31,1.62,3.16,.84,5.6,1.84,7.32,3,1.72,1.16,2.91,2.48,3.57,3.96,.66,1.48,.99,3.14,.99,4.98,0,3.36-1.28,6.06-3.84,8.1-2.56,2.04-6.5,3.06-11.82,3.06Z"/><path class="d" d="M265.45,613.3v-32.4h-11.88v-6.24h31.8v6.24h-11.82v32.4h-8.1Z"/><path class="d" d="M289.81,613.3v-38.64h27.72v6.3h-19.62v9.9h17.4v6.24h-17.4v9.96h19.62v6.24h-27.72Z"/><path class="d" d="M323.17,613.3v-38.64h18.54c4.44,0,7.7,1.17,9.78,3.51,2.08,2.34,3.12,5.49,3.12,9.45,0,2.6-.67,4.84-2.01,6.72-1.34,1.88-3.23,3.24-5.67,4.08,.64,.52,1.15,1.08,1.53,1.68,.38,.6,.77,1.4,1.17,2.4l4.68,10.8h-8.4l-4.56-10.38c-.4-.88-.84-1.5-1.32-1.86-.48-.36-1.28-.54-2.4-.54h-6.36v12.78h-8.1Zm8.1-19.5h8.34c2.12,0,3.78-.47,4.98-1.41,1.2-.94,1.8-2.53,1.8-4.77s-.52-3.74-1.56-4.74c-1.04-1-2.62-1.5-4.74-1.5h-8.82v12.42Z"/></g><path class="d" d="M333.07,269.04c-25.85,0-46.84,20.97-46.84,46.84s21,46.84,46.84,46.84,46.84-20.97,46.84-46.84-21-46.84-46.84-46.84Zm26.02,52.05h-52.05v-10.41h52.05v10.41Zm-88.46,20.82h-78.09v-83.28h104.09v.33c19.49-12.52,42.81-13.73,62.46-5.52v-119.73H130.09v229.01h154.27c-5.76-6-10.47-13.02-13.72-20.82Zm46.82-187.37h20.82v20.82h-20.82v-20.82Zm0,41.64h20.82v20.82h-20.82v-20.82Zm-124.91-41.64h104.09v83.28h-104.09v-83.28Zm-20.82,187.37h-20.82v-20.82h20.82v20.82Zm0-41.64h-20.82v-20.82h20.82v20.82Zm0-41.64h-20.82v-20.82h20.82v20.82Zm0-41.64h-20.82v-20.82h20.82v20.82Zm0-41.64h-20.82v-20.82h20.82v20.82Z"/></svg>