<?xml version="1.0" encoding="UTF-8"?><svg id="a" xmlns="http://www.w3.org/2000/svg" xmlns:xlink="http://www.w3.org/1999/xlink" viewBox="0 0 500 750"><defs><style>.c{fill:url(#b);}.d{letter-spacing:-.04em;}.e{letter-spacing:-.02em;}.f{letter-spacing:-.03em;}.g,.h{fill:#f2f2f3;}.h{font-family:Kanit-Medium, Kanit;font-size:60px;}.i{letter-spacing:-.02em;}</style><linearGradient id="b" x1="562.5" y1="687.5" x2="-62.5" y2="62.5" gradientTransform="matrix(1, 0, 0, 1, 0, 0)" gradientUnits="userSpaceOnUse"><stop offset="0" stop-color="#e83c96"/><stop offset="1" stop-color="#f3e112"/></linearGradient></defs><rect class="c" width="500" height="750"/><text class="h" transform="translate(140.02 469.3)"><tspan x="0" y="0">MI</tspan><tspan class="e" x="60.72" y="0">S</tspan><tspan x="92.82" y="0">SING</tspan><tspan x="22.5" y="72">M</tspan><tspan class="d" x="68.28" y="72">O</tspan><tspan class="i" x="107.88" y="72">V</tspan><tspan x="149.16" y="72">IE</tspan><tspan x="3.15" y="144">PO</tspan><tspan class="f" x="81.03" y="144">S</tspan><tspan x="112.53" y="144">TER</tspan></text><path class="g" d="M333.07,269.04c-25.85,0-46.84,20.97-46.84,46.84s21,46.84,46.84,46.84,46.84-20.97,46.84-46.84-21-46.84-46.84-46.84Zm26.02,52.05h-52.05v-10.41h52.05v10.41Zm-88.46,20.82h-78.09v-83.28h104.09v.33c19.49-12.52,42.81-13.73,62.46-5.52v-119.73H130.09v229.01h154.27c-5.76-6-10.47-13.02-13.72-20.82Zm46.82-187.37h20.82v20.82h-20.82v-20.82Zm0,41.64h20.82v20.82h-20.82v-20.82Zm-124.91-41.64h104.09v83.28h-104.09v-83.28Zm-20.82,187.37h-20.82v-20.82h20.82v20.82Zm0-41.64h-20.82v-20.82h20.82v20.82Zm0-41.64h-20.82v-20.82h20.82v20.82Zm0-41.64h-20.82v-20.82h20.82v20.82Zm0-41.64h-20.82v-20.82h20.82v20.82Z"/></svg>